<?xml version="1.0" encoding="utf-8"?>
<svg xmlns="http://www.w3.org/2000/svg"
  xmlns:xlink="http://www.w3.org/1999/xlink" version="1.1" style="width:0;height:0;position:absolute;overflow:hidden;">
  <defs>
    <symbol viewBox="0 0 1024.0018310546875 948.669921875" aria-labelledby="ddsi-metro-cloud2-title" id="si-metro-cloud2">
      <title id="ddsi-metro-cloud2-title">icon cloud2</title>
      <path d="M870.126 449.002c9.75-7.25 19.624-14.376 28.458-23.208 26.416-26.458 46.542-58.666 59.584-95.708 4.166-11.584 1.208-24.584-7.544-33.25-8.708-8.75-21.624-11.708-33.246-7.584-70.792 25-147.376 8-199.792-44.5-52.5-52.502-69.584-129.042-44.5-199.792a32.014 32.014 0 0 0-7.584-33.292C656.836 3.002 643.878 0 632.252 4.086c-37.084 13.164-69.25 33.246-95.668 59.664-67.082 67-87.958 162-64.958 247.584-86.5 11.042-164.25 57-216.042 127.586A221.881 221.881 0 0 0 224 436.67c-123.5 0-224 100.5-224 224.002C0 784.17 100.5 884.67 224 884.67c27.376 0 54.168-5 79.418-14.668C361.332 920.502 435 948.67 512 948.67c77.084 0 150.666-28.168 208.582-78.668 25.25 9.668 52.042 14.668 79.418 14.668 123.5 0 224-100.5 224-223.998.002-98.878-64.832-182.044-153.874-211.67zm-288.292-340c5.084-5.166 10.542-9.958 16.292-14.458-4.5 71.958 21.458 142.75 74.208 195.458 52.752 52.75 123.542 78.666 195.502 74.208-27.584 35.168-65.584 57.042-106.252 66.376-54.75-69.5-135.208-113.25-223.916-120.374-24.542-67.918-10.166-146.876 44.166-201.21zM800.002 820.67c-34.25 0-65.832-11-91.876-29.334-46.957 56.584-116.876 93.334-196.124 93.334-79.25 0-149.168-36.75-196.124-93.334-26 18.334-57.624 29.334-91.876 29.334-88.376 0-160-71.624-160-159.998 0-88.376 71.624-160 160-160 21.624 0 42.124 4.376 60.876 12.124 40.376-78.71 119.5-133.792 212.624-139.086 4.876-.29 9.624-1.042 14.5-1.042 25.832 0 50.624 4.042 74 11.166 31.582 9.668 60.376 25.416 85.376 45.708 23.876 19.376 43.876 43.124 59.624 69.792 2.666 4.5 5.668 8.75 8.082 13.458 18.792-7.75 39.336-12.124 60.918-12.124 88.376 0 160 71.624 160 160s-71.623 160.002-160 160.002z"/>
    </symbol>
    <symbol viewBox="0 0 1024 640" aria-labelledby="desi-metro-cloud3-title" id="si-metro-cloud3">
      <title id="desi-metro-cloud3-title">icon cloud3</title>
      <path d="M800 128c-10.624 0-21.124.75-31.584 2.25C708.668 48.834 614.377 0 512 0S315.377 48.834 255.584 130.25c-10.46-1.5-20.96-2.25-31.584-2.25C100.5 128 0 228.5 0 352s100.5 224 224 224c27.376 0 54.168-5 79.418-14.666C361.332 611.834 435 640 512 640c77.084 0 150.666-28.166 208.582-78.666C745.832 571 772.624 576 800 576c123.5 0 224-100.5 224-224S923.5 128 800 128zm0 384c-34.25 0-65.832-11-91.876-29.334C661.168 539.248 591.248 576 512 576c-79.25 0-149.168-36.752-196.124-93.334C289.877 501 258.25 512 224 512c-88.376 0-160-71.624-160-160s71.624-160 160-160c21.624 0 42.124 4.416 60.876 12.166C327.334 121.334 412.582 64 512 64s184.668 57.334 227.082 140.166C757.877 196.416 778.418 192 800 192c88.376 0 160 71.624 160 160s-71.624 160-160 160z"/>
    </symbol>
    <symbol viewBox="0 0 1023.9999389648438 1024" aria-labelledby="dfsi-metro-cloud4-title" id="si-metro-cloud4">
      <title id="dfsi-metro-cloud4-title">icon cloud4</title>
      <path d="M1024 269.666c0-98.292-80-178.248-178.334-178.248-4.792 0-9.542.166-14.292.54C785.124 34.292 715.418 0 640 0c-75.376 0-145.124 34.292-191.376 91.958-4.75-.374-9.542-.54-14.376-.54C336 91.418 256 171.376 256 269.666c0 10.292 1.376 20.25 3 30.084-1.084 1.416-2.376 2.708-3.416 4.166a221.881 221.881 0 0 0-31.584-2.25c-123.5 0-224 100.5-224 224 0 123.502 100.5 224 224 224 27.376 0 54.168-4.998 79.418-14.666 36.708 32 80.208 53.876 126.414 66.416L384 832l64 64-64 128 192-128-64-64 9.624-19.166c73.5-2.25 143.5-29.458 198.958-77.834 25.25 9.668 52.042 14.666 79.418 14.666 123.5 0 224-100.498 224-224 0-51.332-18.084-98.166-47.332-136 29.164-31.75 47.332-73.624 47.332-120zm-224 416c-34.25 0-65.832-11-91.876-29.292-38 45.792-91.5 77.458-152.458 88.25l-47.542 4.624C430.5 748 362 712 315.877 656.376c-26 18.292-57.624 29.292-91.876 29.292-88.376 0-160-71.582-160-160 0-88.334 71.624-160 160-160 21.624 0 42.124 4.418 60.876 12.166 1.124-2.166 2.5-4 3.624-6.084a260.414 260.414 0 0 1 41.332-56.084c46.168-47.792 110.334-78 182.168-78 99.418 0 184.668 57.334 227.082 140.166 11.292-4.666 23.336-7.666 35.75-9.666l25.168-2.5c24.668 0 47.75 6.084 68.624 16 22.624 10.834 42.042 26.75 57.292 46.416 21 27.042 34.084 60.668 34.084 97.584 0 88.418-71.624 160-160 160zm131.124-340.75c-36.958-26.876-82-43.25-131.124-43.25-10.624 0-21.124.75-31.584 2.25-59.748-81.374-154.04-130.25-256.416-130.25-68.25 0-132.624 22.124-185.876 60.708 14.958-45.706 57.458-78.956 108.124-78.956 15.5 0 30.124 3.124 43.5 8.666C508.124 104.916 569 64 640 64s131.916 40.916 162.168 100.084c13.458-5.542 28.166-8.666 43.498-8.666 63.168 0 114.334 51.166 114.334 114.248 0 29-11.124 55.126-28.876 75.25z"/>
    </symbol>
    <symbol viewBox="0 0 1024 1024" aria-labelledby="disi-metro-cloudy-title" id="si-metro-cloudy">
      <title id="disi-metro-cloudy-title">icon cloudy</title>
      <path d="M416 128c17.666 0 32-14.334 32-32V32c0-17.666-14.334-32-32-32s-32 14.334-32 32v64c0 17.666 14.334 32 32 32zm248.876 84.334l45.25-45.25c12.498-12.5 12.498-32.75 0-45.25-12.5-12.5-32.75-12.5-45.25 0l-45.25 45.25c-12.5 12.5-12.5 32.75 0 45.25 12.498 12.5 32.75 12.5 45.25 0zM32 448h64c17.666 0 32-14.334 32-32s-14.334-32-32-32H32c-17.666 0-32 14.334-32 32s14.334 32 32 32zm672-32c0 17.666 14.334 32 32 32h64c17.666 0 32-14.334 32-32s-14.334-32-32-32h-64c-17.666 0-32 14.334-32 32zM167.082 212.334c12.502 12.5 32.752 12.5 45.25 0 12.502-12.5 12.502-32.75 0-45.25l-45.25-45.25c-12.5-12.5-32.748-12.5-45.25 0-12.5 12.5-12.5 32.75 0 45.25l45.25 45.25zM800 512c-10.624 0-21.124.75-31.584 2.25-33.542-45.75-78.248-80.666-128.916-103C636.918 290 537.877 192 416 192c-123.5 0-224 100.5-224 224 0 34.876 8.668 67.5 23 96.876C95.75 517.75 0 615.624 0 736c0 123.5 100.5 224 224 224 27.376 0 54.168-5 79.418-14.666C361.332 995.834 435 1024 512 1024c77.084 0 150.666-28.166 208.582-78.666C745.832 955 772.624 960 800 960c123.5 0 224-100.5 224-224S923.5 512 800 512zM416 256c79.624 0 145.124 58.334 157.416 134.5-20.042-4-40.498-6.5-61.416-6.5-91.876 0-177 39.624-236.75 106.5C263.376 468.166 256 443.084 256 416c0-88.376 71.624-160 160-160zm384 640c-34.25 0-65.832-11-91.876-29.334C661.168 923.25 591.248 960 512 960c-79.25 0-149.168-36.75-196.124-93.334C289.877 885 258.25 896 224 896c-88.376 0-160-71.624-160-160s71.624-160 160-160c15.5 0 30.124 2.916 44.25 7.082 5.624 1.584 11.334 2.834 16.624 5.042 8.75-17.124 19.75-32.792 31.958-47.5C363.584 484.376 433.124 448 512 448c20.25 0 39.668 2.916 58.5 7.418C591.624 460.416 611.584 468 630.168 478 676.75 502.75 715 541.084 739.082 588.126 757.877 580.376 778.418 576 800 576c88.376 0 160 71.624 160 160s-71.624 160-160 160z"/>
    </symbol>
    <symbol viewBox="0 0 1023.9998779296875 813.6639404296875" aria-labelledby="djsi-metro-cloudy2-title" id="si-metro-cloudy2">
      <title id="djsi-metro-cloudy2-title">icon cloudy2</title>
      <path d="M1024 269.666c0-98.334-80-178.292-178.334-178.292-4.792 0-9.542.208-14.292.582C785.124 34.248 715.416 0 639.998 0c-75.376 0-145.124 34.248-191.376 91.958a182.09 182.09 0 0 0-14.376-.582C336 91.374 256 171.332 256 269.666c0 10.292 1.376 20.208 3 30.084-1.084 1.416-2.376 2.708-3.416 4.166a221.881 221.881 0 0 0-31.584-2.25c-123.5 0-224 100.498-224 223.998 0 123.502 100.5 224 224 224 27.376 0 54.168-5 79.418-14.666C361.332 785.498 435 813.664 512 813.664c77.084 0 150.666-28.166 208.582-78.666 25.25 9.666 52.042 14.666 79.418 14.666 123.5 0 224-100.498 224-224 0-51.376-18.084-98.166-47.332-135.998 29.164-31.792 47.332-73.666 47.332-120zM800 685.664c-34.25 0-65.832-10.998-91.876-29.332-46.957 56.582-116.876 93.332-196.124 93.332-79.25 0-149.168-36.75-196.124-93.332-26 18.334-57.624 29.332-91.876 29.332-88.376 0-160-71.624-160-160s71.624-159.998 160-159.998c21.624 0 42.124 4.376 60.876 12.124 1.124-2.124 2.5-4 3.624-6.042 11.25-20.542 25.124-39.376 41.332-56.084 46.168-47.832 110.334-78 182.168-78 99.418 0 184.668 57.332 227.082 140.124 11.292-4.624 23.336-7.626 35.75-9.624l25.168-2.5c24.668 0 47.75 6.084 68.624 16 22.624 10.832 42.042 26.748 57.292 46.376 21 27.042 34.084 60.708 34.084 97.624 0 88.376-71.624 160-160 160zm131.124-340.75c-36.958-26.916-82-43.248-131.124-43.248-10.624 0-21.124.75-31.584 2.25C708.668 222.5 614.374 173.666 512 173.666c-68.25 0-132.624 22.084-185.876 60.668 14.958-45.708 57.458-78.958 108.124-78.958 15.5 0 30.124 3.124 43.5 8.664C508.124 104.916 568.998 64 639.998 64s131.916 40.914 162.169 100.04c13.458-5.54 28.166-8.664 43.498-8.664 63.168 0 114.334 51.166 114.334 114.292.002 28.956-11.122 55.08-28.874 75.246z"/>
    </symbol>
    <symbol viewBox="0 0 1024 960" aria-labelledby="jssi-metro-lightning-title" id="si-metro-lightning">
      <title id="jssi-metro-lightning-title">icon lightning</title>
      <path d="M800 128c-10.624 0-21.124.75-31.584 2.25C708.668 48.834 614.377 0 512 0S315.377 48.834 255.584 130.25c-10.46-1.5-20.96-2.25-31.584-2.25C100.5 128 0 228.5 0 352s100.5 224 224 224c27.376 0 54.168-5 79.418-14.666 43.082 37.542 94.832 62.582 150.208 73.042L384 704l64 64-64 192 192-192-64-64 22-65.998c68.916-4.876 134.25-31.086 186.582-76.668C745.832 571 772.624 576 800 576c123.5 0 224-100.5 224-224S923.5 128 800 128zm0 384c-34.25 0-65.832-11-91.876-29.334-37.876 45.666-91.124 77.25-151.75 88.208L512 576c-79.25 0-149.168-36.75-196.124-93.334C289.877 501 258.25 512 224 512c-88.376 0-160-71.624-160-160s71.624-160 160-160c21.624 0 42.124 4.416 60.876 12.166C327.334 121.334 412.582 64 512 64s184.668 57.334 227.082 140.166C757.877 196.416 778.418 192 800 192c88.376 0 160 71.624 160 160s-71.624 160-160 160z"/>
    </symbol>
    <symbol viewBox="0 0 1024 960" aria-labelledby="jtsi-metro-lightning2-title" id="si-metro-lightning2">
      <title id="jtsi-metro-lightning2-title">icon lightning2</title>
      <path d="M800 128c-10.624 0-21.124.75-31.584 2.25C708.668 48.834 614.377 0 512 0S315.377 48.834 255.584 130.25c-10.46-1.5-20.96-2.25-31.584-2.25C100.5 128 0 228.5 0 352s100.5 224 224 224c27.376 0 54.168-5 79.418-14.666 24.582 21.416 52.5 37.916 81.832 50.832l49.832-49.748c-46.916-15.252-88.332-42.542-119.208-79.752C289.877 501 258.25 512 224 512c-88.376 0-160-71.624-160-160s71.624-160 160-160c21.624 0 42.124 4.416 60.876 12.166C327.334 121.334 412.582 64 512 64s184.668 57.334 227.082 140.166C757.877 196.416 778.418 192 800 192c88.376 0 160 71.624 160 160s-71.624 160-160 160c-34.25 0-65.832-11-91.876-29.334-20.75 25.042-46.624 45.334-75.25 61.168L606 624.5c41.75-13.124 81-33.876 114.582-63.166C745.832 571 772.624 576 800 576c123.5 0 224-100.5 224-224S923.5 128 800 128zM384 704l64 64-64 192 192-192-64-64 64-192-192 192z"/>
    </symbol>
    <symbol viewBox="0 0 1023.9999389648438 1024" aria-labelledby="jusi-metro-lightning3-title" id="si-metro-lightning3">
      <title id="jusi-metro-lightning3-title">icon lightning3</title>
      <path d="M384 768l64 64-64 192 192-192-64-64 64-128-192 128zm640-498.334c0-98.292-80-178.248-178.334-178.248-4.792 0-9.542.166-14.292.54C785.124 34.292 715.418 0 640 0c-75.376 0-145.124 34.292-191.376 91.958-4.75-.374-9.542-.54-14.376-.54C336 91.418 256 171.376 256 269.666c0 10.292 1.376 20.25 3 30.084-1.084 1.416-2.376 2.708-3.416 4.166a221.881 221.881 0 0 0-31.584-2.25c-123.5 0-224 100.5-224 224 0 123.502 100.5 224 224 224 27.376 0 54.168-4.998 79.418-14.666 2.208 1.918 4.832 3.25 7.082 5.124l56.624-37.75c-18.876-13.376-36.5-28.25-51.25-46-26 18.292-57.624 29.292-91.876 29.292-88.376 0-160-71.582-160-160 0-88.334 71.624-160 160-160 21.624 0 42.124 4.418 60.876 12.166 1.124-2.166 2.5-4 3.624-6.084a260.414 260.414 0 0 1 41.332-56.084c46.168-47.792 110.334-78 182.168-78 99.418 0 184.668 57.334 227.082 140.166 11.292-4.666 23.336-7.666 35.75-9.666l25.168-2.5c24.668 0 47.75 6.084 68.624 16 22.624 10.834 42.042 26.75 57.292 46.416 21 27.042 34.084 60.668 34.084 97.584 0 88.418-71.624 160-160 160-34.25 0-65.832-11-91.876-29.292-28 33.75-64.876 59.124-106.292 75.124l-11.958 23.876 36.5 36.5c34.124-13.292 66.042-32.376 94.208-56.876 25.25 9.668 52.042 14.666 79.418 14.666 123.5 0 224-100.498 224-224 0-51.332-18.084-98.166-47.332-136 29.166-31.746 47.334-73.62 47.334-119.996zm-92.876 75.25c-36.958-26.876-82-43.25-131.124-43.25-10.624 0-21.124.75-31.584 2.25-59.748-81.374-154.04-130.25-256.416-130.25-68.25 0-132.624 22.124-185.876 60.708 14.958-45.706 57.458-78.956 108.124-78.956 15.5 0 30.124 3.124 43.5 8.666C508.124 104.916 569 64 640 64s131.916 40.916 162.168 100.084c13.458-5.542 28.166-8.666 43.498-8.666 63.168 0 114.334 51.166 114.334 114.248 0 29-11.124 55.126-28.876 75.25z"/>
    </symbol>
    <symbol viewBox="0 0 1024 896" aria-labelledby="nksi-metro-rainy-title" id="si-metro-rainy">
      <title id="nksi-metro-rainy-title">icon rainy</title>
      <path d="M800 128c-10.624 0-21.124.75-31.584 2.25C708.668 48.834 614.377 0 512 0S315.377 48.834 255.584 130.25c-10.46-1.5-20.96-2.25-31.584-2.25C100.5 128 0 228.5 0 352s100.5 224 224 224c27.376 0 54.168-5 79.418-14.666C361.332 611.834 435 640 512 640c77.084 0 150.666-28.166 208.582-78.666C745.832 571 772.624 576 800 576c123.5 0 224-100.5 224-224S923.5 128 800 128zm0 384c-34.25 0-65.832-11-91.876-29.334C661.168 539.25 591.248 576 512 576c-79.25 0-149.168-36.75-196.124-93.334C289.877 501 258.25 512 224 512c-88.376 0-160-71.624-160-160s71.624-160 160-160c21.624 0 42.124 4.416 60.876 12.166C327.334 121.334 412.582 64 512 64s184.668 57.334 227.082 140.166C757.877 196.416 778.418 192 800 192c88.376 0 160 71.624 160 160s-71.624 160-160 160zM448 832c0 35.376 28.624 64 64 64s64-28.624 64-64-64-128-64-128-64 92.624-64 128z"/>
    </symbol>
    <symbol viewBox="0 0 1024 1024" aria-labelledby="nlsi-metro-rainy2-title" id="si-metro-rainy2">
      <title id="nlsi-metro-rainy2-title">icon rainy2</title>
      <path d="M800 128c-10.624 0-21.124.75-31.584 2.25C708.668 48.834 614.377 0 512 0S315.377 48.834 255.584 130.25c-10.46-1.5-20.96-2.25-31.584-2.25C100.5 128 0 228.5 0 352s100.5 224 224 224c27.376 0 54.168-5 79.418-14.666C361.332 611.834 435 640 512 640c77.084 0 150.666-28.166 208.582-78.666C745.832 571 772.624 576 800 576c123.5 0 224-100.5 224-224S923.5 128 800 128zm0 384c-34.25 0-65.832-11-91.876-29.334C661.168 539.25 591.248 576 512 576c-79.25 0-149.168-36.75-196.124-93.334C289.877 501 258.25 512 224 512c-88.376 0-160-71.624-160-160s71.624-160 160-160c21.624 0 42.124 4.416 60.876 12.166C327.334 121.334 412.582 64 512 64s184.668 57.334 227.082 140.166C757.877 196.416 778.418 192 800 192c88.376 0 160 71.624 160 160s-71.624 160-160 160zM450 960c0 35.376 28.624 64 64 64s64-28.624 64-64-64-128-64-128-64 92.624-64 128zm254-64c0 35.376 28.624 64 64 64s64-28.624 64-64-64-128-64-128-64 92.624-64 128zM192 768c0 35.376 28.624 64 64 64s64-28.624 64-64-64-128-64-128-64 92.624-64 128z"/>
    </symbol>
    <symbol viewBox="0 0 1024 1024" aria-labelledby="otsi-metro-snowy-title" id="si-metro-snowy">
      <title id="otsi-metro-snowy-title">icon snowy</title>
      <path d="M652.084 887.376l-36-20.752c1.084-6.248 1.916-12.622 1.916-19.248 0-6.624-.832-13-2-19.25l36.084-20.792c16.834-9.834 22.582-31.458 12.916-48.208-9.752-16.958-31.334-22.75-48.25-13l-36.376 21c-9.752-8.292-20.75-14.792-33-19.208v-41.792c0-19.542-15.876-35.376-35.376-35.376s-35.331 15.834-35.331 35.376v41.75c-12.252 4.376-23.292 10.958-33.042 19.25l-36.292-21c-16.958-9.75-38.584-4-48.334 12.958-9.75 16.834-3.876 38.5 13 48.252l35.918 20.75c-1.168 6.292-1.918 12.668-1.918 19.292 0 6.626.75 13 1.918 19.248l-35.916 20.75c-16.918 9.75-22.75 31.5-13 48.376s31.376 22.624 48.25 12.876l36.334-20.876c9.748 8.25 20.792 14.75 33.084 19.124v41.876c0 19.498 15.832 35.248 35.332 35.248s35.376-15.75 35.376-35.248v-41.876c12.25-4.376 23.376-10.876 33.042-19.25l36.334 21c16.916 9.75 38.498 4 48.25-12.876 9.748-16.874 3.998-38.5-12.918-48.374zM512 882.75c-19.5 0-35.376-15.876-35.376-35.376S492.5 812.082 512 812.082s35.334 15.792 35.334 35.292S531.5 882.75 512 882.75zM800 128c-10.624 0-21.124.75-31.584 2.25C708.668 48.834 614.377 0 512 0S315.377 48.834 255.584 130.25c-10.46-1.5-20.96-2.25-31.584-2.25C100.5 128 0 228.5 0 352s100.5 224 224 224c27.376 0 54.168-5 79.418-14.666C361.332 611.834 435 640 512 640c77.084 0 150.666-28.166 208.582-78.666C745.832 571 772.624 576 800 576c123.5 0 224-100.5 224-224S923.5 128 800 128zm0 384c-34.25 0-65.832-11-91.876-29.334C661.168 539.25 591.248 576 512 576c-79.25 0-149.168-36.75-196.124-93.334C289.877 501 258.25 512 224 512c-88.376 0-160-71.624-160-160s71.624-160 160-160c21.624 0 42.124 4.416 60.876 12.166C327.334 121.334 412.582 64 512 64s184.668 57.334 227.082 140.166C757.877 196.416 778.418 192 800 192c88.376 0 160 71.624 160 160s-71.624 160-160 160z"/>
    </symbol>
    <symbol viewBox="0 0 1024 831.9999389648438" aria-labelledby="ousi-metro-snowy2-title" id="si-metro-snowy2">
      <title id="ousi-metro-snowy2-title">icon snowy2</title>
      <path d="M652.084 695.376l-36-20.75c1.084-6.25 1.916-12.624 1.916-19.25 0-6.624-.832-13-2-19.25l36.084-20.792c16.834-9.834 22.582-31.458 12.916-48.208-9.752-16.958-31.334-22.75-48.25-13l-36.376 21c-9.754-8.292-20.75-14.792-33-19.208v-41.792c0-19.542-15.876-35.376-35.376-35.376s-35.331 15.834-35.331 35.376v41.75c-12.252 4.376-23.292 10.958-33.042 19.25l-36.292-21c-16.958-9.75-38.584-4-48.334 12.958-9.75 16.834-3.876 38.5 13 48.252l35.918 20.75c-1.168 6.292-1.918 12.668-1.918 19.292s.75 13 1.918 19.246l-35.916 20.752c-16.918 9.75-22.75 31.5-13 48.376s31.376 22.624 48.25 12.876l36.334-20.876c9.748 8.25 20.792 14.75 33.084 19.124v41.876c0 19.498 15.832 35.248 35.332 35.248s35.376-15.75 35.376-35.248v-41.876c12.25-4.376 23.376-10.876 33.042-19.25l36.334 21c16.916 9.75 38.498 4 48.25-12.876 9.748-16.874 3.998-38.5-12.918-48.374zM512 690.75c-19.5 0-35.376-15.876-35.376-35.376S492.5 620.082 512 620.082s35.334 15.792 35.334 35.292S531.5 690.75 512 690.75zM800 128c-10.624 0-21.124.75-31.584 2.25C708.668 48.834 614.377 0 512 0S315.377 48.834 255.584 130.25c-10.46-1.5-20.96-2.25-31.584-2.25C100.5 128 0 228.5 0 352s100.5 224 224 224c23.624 0 46.668-4.416 68.876-11.668 2.124-10.164 5.458-20.082 10.75-29.29 7.876-13.708 19.124-24.624 32-33.004-6.624-6.458-13.876-12.208-19.75-19.376C289.877 501 258.25 512 224 512c-88.376 0-160-71.624-160-160s71.624-160 160-160c21.624 0 42.124 4.416 60.876 12.166C327.334 121.334 412.582 64 512 64s184.668 57.334 227.082 140.166C757.877 196.416 778.418 192 800 192c88.376 0 160 71.624 160 160s-71.624 160-160 160c-34.25 0-65.832-11-91.876-29.334-5.876 7.166-13.208 12.918-19.792 19.376 12.918 8.414 24.25 19.376 32.084 33.124 5.416 9.292 8.708 19.168 10.832 29.166C753.377 571.584 776.377 576 800 576c123.5 0 224-100.5 224-224S923.5 128 800 128z"/>
    </symbol>
    <symbol viewBox="0 0 1024 1024" aria-labelledby="ovsi-metro-snowy3-title" id="si-metro-snowy3">
      <title id="ovsi-metro-snowy3-title">icon snowy3</title>
      <path d="M652.084 887.376l-36-20.752c1.084-6.248 1.916-12.622 1.916-19.248 0-6.624-.832-13-2-19.25l36.084-20.792c16.834-9.834 22.582-31.458 12.916-48.208-9.752-16.958-31.334-22.75-48.25-13l-36.376 21c-9.752-8.292-20.75-14.792-33-19.208v-41.792c0-19.542-15.876-35.376-35.376-35.376s-35.331 15.834-35.331 35.376v41.75c-12.252 4.376-23.292 10.958-33.042 19.25l-36.292-21c-16.958-9.75-38.584-4-48.334 12.958-9.75 16.834-3.876 38.5 13 48.252l35.918 20.75c-1.168 6.292-1.918 12.668-1.918 19.292 0 6.626.75 13 1.918 19.248l-35.916 20.75c-16.918 9.75-22.75 31.5-13 48.376s31.376 22.624 48.25 12.876l36.334-20.876c9.748 8.25 20.792 14.75 33.084 19.124v41.876c0 19.498 15.832 35.248 35.332 35.248s35.376-15.75 35.376-35.248v-41.876c12.25-4.376 23.376-10.876 33.042-19.25l36.334 21c16.916 9.75 38.498 4 48.25-12.876 9.748-16.874 3.998-38.5-12.918-48.374zM512 882.75c-19.5 0-35.376-15.876-35.376-35.376S492.5 812.082 512 812.082s35.334 15.792 35.334 35.292S531.5 882.75 512 882.75zm436.332-90.25l-24.166-6.416c-.582-7.666-2.416-14.958-5.792-21.958l17.542-17.542c8.25-8.25 8.208-21.584 0-29.708-8.166-8.208-21.416-8.25-29.666 0l-17.582 17.5c-6.918-3.25-14.292-5.124-21.918-5.75l-6.418-24.124c-2.998-11.166-14.5-17.876-25.748-14.876-11.208 3.042-17.75 14.542-14.834 25.75l6.418 23.792a67.844 67.844 0 0 0-9 7.334c-2.75 2.834-5.084 5.832-7.252 8.918l-23.792-6.418c-11.208-2.998-22.792 3.752-25.792 14.876-2.998 11.25 3.752 22.708 14.834 25.75l24 6.458c.668 7.542 2.584 14.916 5.958 21.918L787.5 835.628c-8.166 8.208-8.124 21.458.084 29.624 8.166 8.166 21.416 8.25 29.584.084l17.664-17.666c6.918 3.414 14.336 5.332 22.002 5.914l6.332 24.042c3.084 11.208 14.5 17.876 25.752 14.876 11.166-3 17.914-14.498 14.916-25.834l-6.418-23.792c3-2.124 6.084-4.5 8.918-7.25 2.75-2.792 5.084-5.876 7.248-8.958l23.834 6.418c11.208 3 22.75-3.708 25.708-14.834 3-11.17-3.624-22.668-14.792-25.752zm-71.708 13.376c-8.25 8.25-21.542 8.208-29.75 0-8.124-8.124-8.208-21.458 0-29.708 8.208-8.166 21.542-8.166 29.75 0 8.126 8.208 8.126 21.582 0 29.708zM237.877 685l-23.75 6.376c-2.208-3-4.5-6.042-7.292-8.876-2.832-2.75-5.832-5.124-8.958-7.25l6.376-23.876c3-11.208-3.668-22.75-14.75-25.708-11.25-3-22.75 3.668-25.75 14.834l-6.5 24.124c-7.624.624-14.916 2.5-21.876 5.792l-17.624-17.542c-8.25-8.25-21.5-8.208-29.668 0-8.208 8.208-8.208 21.5 0 29.708l17.542 17.542a62.646 62.646 0 0 0-5.792 21.958l-24.084 6.416c-11.25 3.084-17.918 14.5-14.916 25.75 3.042 11.166 14.542 17.75 25.792 14.834l23.75-6.46c2.124 3.208 4.5 6.21 7.376 9.002 2.75 2.75 5.75 5.208 8.876 7.25l-6.376 23.792c-3 11.25 3.668 22.834 14.832 25.834 11.252 3 22.668-3.666 25.668-14.876l6.5-24c7.624-.624 15-2.542 22-5.876l17.582 17.584c8.168 8.248 21.418 8.082 29.668-.084 8.124-8.124 8.25-21.416 0-29.624L218.878 754c3.376-6.92 5.376-14.376 5.876-22.002l24.124-6.376c11.124-3.042 17.792-14.5 14.792-25.75-3.002-11.12-14.502-17.788-25.794-14.872zm-60.752 56.916c-8.208 8.208-21.5 8.208-29.75 0-8.124-8.166-8.124-21.542 0-29.666 8.25-8.166 21.542-8.166 29.75 0s8.126 21.5 0 29.666zM1024 352c0-123.5-100.5-224-224-224-10.624 0-21.124.75-31.584 2.25C708.668 48.834 614.377 0 512 0S315.377 48.834 255.584 130.25c-10.46-1.5-20.96-2.25-31.584-2.25C100.5 128 0 228.5 0 352s100.5 224 224 224c27.376 0 54.168-5 79.418-14.666C361.332 611.834 435 640 512 640c77.084 0 150.666-28.166 208.582-78.666C745.832 571 772.624 576 800 576c123.5 0 224-100.5 224-224zM708.124 482.666C661.168 539.25 591.248 576 512 576c-79.25 0-149.168-36.75-196.124-93.334C289.877 501 258.25 512 224 512c-88.376 0-160-71.624-160-160s71.624-160 160-160c21.624 0 42.124 4.416 60.876 12.166C327.334 121.334 412.582 64 512 64s184.668 57.334 227.082 140.166C757.877 196.416 778.418 192 800 192c88.376 0 160 71.624 160 160s-71.624 160-160 160c-34.25 0-65.832-11-91.876-29.334z"/>
    </symbol>
    <symbol viewBox="0 0 832 832" aria-labelledby="qbsi-metro-sun-title" id="si-metro-sun">
      <title id="qbsi-metro-sun-title">icon sun</title>
      <path d="M416 192c-123.5 0-224 100.5-224 224s100.5 224 224 224 224-100.5 224-224-100.5-224-224-224zm0 384c-88.376 0-160-71.624-160-160s71.624-160 160-160 160 71.624 160 160-71.624 160-160 160zm0-448c17.666 0 32-14.334 32-32V32c0-17.666-14.334-32-32-32s-32 14.334-32 32v64c0 17.666 14.334 32 32 32zm0 576c-17.666 0-32 14.334-32 32v64c0 17.666 14.334 32 32 32s32-14.334 32-32v-64c0-17.666-14.334-32-32-32zm248.877-491.666l45.25-45.25c12.5-12.5 12.5-32.75 0-45.25s-32.75-12.5-45.25 0l-45.25 45.25c-12.5 12.5-12.5 32.75 0 45.25 12.498 12.5 32.75 12.5 45.25 0zM167.124 619.668l-45.25 45.25c-12.5 12.498-12.5 32.748 0 45.248s32.75 12.5 45.25 0l45.25-45.248c12.5-12.542 12.5-32.752 0-45.25-12.498-12.502-32.75-12.544-45.25 0zM128 416c0-17.666-14.334-32-32-32H32c-17.666 0-32 14.334-32 32s14.334 32 32 32h64c17.666 0 32-14.334 32-32zm672-32h-64c-17.666 0-32 14.334-32 32s14.334 32 32 32h64c17.666 0 32-14.334 32-32s-14.334-32-32-32zM167.082 212.334c12.502 12.5 32.752 12.5 45.25 0 12.502-12.5 12.502-32.75 0-45.25l-45.25-45.25c-12.5-12.5-32.748-12.5-45.25 0-12.5 12.5-12.5 32.75 0 45.25l45.25 45.25zm497.836 407.29c-12.542-12.5-32.752-12.5-45.25 0-12.502 12.5-12.542 32.75 0 45.25l45.25 45.25c12.498 12.5 32.748 12.5 45.248 0s12.5-32.748 0-45.25l-45.248-45.25z"/>
    </symbol>
    <symbol viewBox="0 0 768 832" aria-labelledby="qcsi-metro-sun3-title" id="si-metro-sun3">
      <title id="qcsi-metro-sun3-title">icon sun3</title>
      <path d="M416 128c17.666 0 32-14.334 32-32V32c0-17.666-14.334-32-32-32s-32 14.334-32 32v64c0 17.666 14.334 32 32 32zm0 576c-17.666 0-32 14.334-32 32v64c0 17.666 14.334 32 32 32s32-14.334 32-32v-64c0-17.666-14.334-32-32-32zm-248.876-84.332l-45.25 45.25c-12.5 12.498-12.5 32.748 0 45.248s32.75 12.5 45.25 0l45.25-45.248c12.5-12.542 12.5-32.752 0-45.25-12.498-12.502-32.75-12.544-45.25 0zM128 416c0-17.666-14.334-32-32-32H32c-17.666 0-32 14.334-32 32s14.334 32 32 32h64c17.666 0 32-14.334 32-32zm39.082-203.666c12.502 12.5 32.752 12.5 45.25 0 12.502-12.5 12.502-32.75 0-45.25l-45.25-45.25c-12.5-12.5-32.748-12.5-45.25 0-12.5 12.5-12.5 32.75 0 45.25l45.25 45.25zM544 192c-22.376 0-43.624 4.334-64 10.416C459.624 196.332 438.376 192 416 192c-123.5 0-224 100.5-224 224s100.5 224 224 224c22.376 0 43.624-4.332 64-10.418C500.376 635.668 521.624 640 544 640c123.5 0 224-100.5 224-224S667.5 192 544 192zM384.458 572.834C311.167 558.168 256 493.582 256 416c0-77.584 55.166-142.166 128.458-156.834C344.668 299.624 320 354.916 320 416s24.668 116.376 64.458 156.834z"/>
    </symbol>
    <symbol viewBox="0 0 1024 768" aria-labelledby="susi-metro-weather3-title" id="si-metro-weather3">
      <title id="susi-metro-weather3-title">icon weather3</title>
      <path d="M67.208 384A161.803 161.803 0 0 1 64 352c0-88.376 71.624-160 160-160 21.624 0 42.124 4.416 60.876 12.166C327.334 121.334 412.582 64 512 64s184.668 57.334 227.082 140.166C757.877 196.416 778.418 192 800 192c88.376 0 160 71.624 160 160 0 10.958-1.124 21.666-3.25 32h64c1.584-10.542 3.25-21.042 3.25-32 0-123.5-100.5-224-224-224-10.624 0-21.124.75-31.584 2.25C708.668 48.834 614.377 0 512 0S315.377 48.834 255.584 130.25c-10.46-1.5-20.96-2.25-31.584-2.25C100.5 128 0 228.5 0 352c0 10.958 1.708 21.458 3.25 32h63.958zM992 448H32c-17.666 0-32 14.334-32 32s14.334 32 32 32h960c17.666 0 32-14.334 32-32s-14.334-32-32-32zm0 128H32c-17.666 0-32 14.334-32 32s14.334 32 32 32h960c17.666 0 32-14.334 32-32s-14.334-32-32-32zm0 128H32c-17.666 0-32 14.334-32 32s14.334 32 32 32h960c17.666 0 32-14.334 32-32s-14.334-32-32-32z"/>
    </symbol>
    <symbol viewBox="0 0 1024 1024" aria-labelledby="svsi-metro-weather4-title" id="si-metro-weather4">
      <title id="svsi-metro-weather4-title">icon weather4</title>
      <path d="M800 128c-10.624 0-21.124.75-31.584 2.25C708.668 48.834 614.377 0 512 0S315.377 48.834 255.584 130.25c-10.46-1.5-20.96-2.25-31.584-2.25C100.5 128 0 228.5 0 352s100.5 224 224 224c27.376 0 54.168-5 79.418-14.666C361.332 611.834 435 640 512 640c77.084 0 150.666-28.166 208.582-78.666C745.832 571 772.624 576 800 576c123.5 0 224-100.5 224-224S923.5 128 800 128zm0 384c-19.418 0-38.418-3.5-56.5-10.416l-36-13.834-29 25.334C632 553.666 572.877 576 512 576s-120-22.334-166.5-62.916l-29-25.334-36 13.834C262.5 508.5 243.418 512 224 512c-88.25 0-160-71.792-160-160s71.75-160 160-160c7.584 0 15 .542 22.5 1.584l37.916 5.5 22.708-30.916C355.75 101.958 430.418 64 512 64c81.624 0 156.25 37.916 204.834 104.126l22.75 30.958 37.998-5.5A160.368 160.368 0 0 1 800 192c88.25 0 160 71.792 160 160s-71.75 160-160 160zM192 640c-35.376 0-64 28.624-64 64s28.624 64 64 64 64-28.624 64-64-28.624-64-64-64zm320 64c-35.376 0-64 28.624-64 64s28.624 64 64 64 64-28.624 64-64-28.624-64-64-64zm320-64c-35.376 0-64 28.624-64 64s28.624 64 64 64 64-28.624 64-64-28.624-64-64-64zM704 896c-35.376 0-64 28.624-64 64s28.624 64 64 64 64-28.624 64-64-28.624-64-64-64zm-384 0c-35.376 0-64 28.624-64 64s28.624 64 64 64 64-28.624 64-64-28.624-64-64-64z"/>
    </symbol>
    <symbol viewBox="0 0 832 576" aria-labelledby="tdsi-metro-wind-title" id="si-metro-wind">
      <title id="tdsi-metro-wind-title">icon wind</title>
      <path d="M736 128c-53 0-96 43-96 96 0 11.292 2.334 21.916 5.876 32H32c-17.666 0-32 14.334-32 32s14.334 32 32 32h704c53 0 96-43 96-96s-43-96-96-96zM32 192h384c53 0 96-43 96-96S469 0 416 0s-96 43-96 96c0 11.292 2.334 21.916 5.876 32H32c-17.666 0-32 14.334-32 32s14.334 32 32 32zm512 192c-1.876 0-3.668.416-5.582.582-1.25-.082-2.292-.582-3.542-.582H41.168C18.418 384 0 398.334 0 416s18.418 32 41.168 32h412.709c-3.542 10.084-5.876 20.752-5.876 32 0 53 43 96 96 96s96-43 96-96-43-96-96-96z"/>
    </symbol>
    <symbol viewBox="0 0 1024.00390625 514.7520751953125" aria-labelledby="tgsi-metro-windy2-title" id="si-metro-windy2">
      <title id="tgsi-metro-windy2-title">icon windy2</title>
      <path d="M834.084 77.542C786.126 28.458 719.834 0 650.624 0 581.5 0 515.248 28.458 467.294 77.542 361.668 82.46 277.252 169.918 277.252 276.71c0 109.916 89.418 199.332 199.376 199.332 11.668 0 23.208-1 34.542-2.998 41.458 27.082 89.834 41.708 139.458 41.708 49.708 0 98.126-14.626 139.544-41.708a199.966 199.966 0 0 0 34.582 2.998c109.874 0 199.25-89.416 199.25-199.332-.004-106.792-84.38-194.25-189.92-199.168zm-9.334 334.5c-16.624 0-32.75-2.998-48-8.834-35 30.5-79.5 47.544-126.126 47.544-46.498 0-90.998-17.044-125.998-47.544-15.25 5.836-31.5 8.834-48 8.834-74.624 0-135.376-60.75-135.376-135.332 0-74.626 60.75-135.376 135.376-135.376 6.376 0 12.75.458 19.042 1.376 36.208-49.166 93.082-78.708 154.956-78.708 61.876 0 118.876 29.542 155.002 78.708a131.708 131.708 0 0 1 19.124-1.376c74.624 0 135.25 60.75 135.25 135.376 0 74.582-60.624 135.332-135.25 135.332zM288 449.376H32c-17.666 0-32 14.334-32 32s14.334 32 32 32h256c17.666 0 32-14.334 32-32s-14.334-32-32-32zm-256-64h128c17.666 0 32-14.334 32-32s-14.334-32-32-32H32c-17.666 0-32 14.334-32 32s14.334 32 32 32zm64-128h128c17.666 0 32-14.334 32-32s-14.334-32-32-32H96c-17.666 0-32 14.334-32 32s14.334 32 32 32z"/>
    </symbol>
    <symbol viewBox="0 0 1024.00390625 896" aria-labelledby="thsi-metro-windy3-title" id="si-metro-windy3">
      <title id="thsi-metro-windy3-title">icon windy3</title>
      <path d="M834.084 77.584C786.124 28.458 719.834 0 650.624 0 581.5 0 515.248 28.458 467.294 77.584c-105.626 4.876-190.042 92.334-190.042 199.084 0 109.956 89.418 199.416 199.376 199.416a198.81 198.81 0 0 0 34.542-3c41.458 27.042 89.834 41.666 139.458 41.666 49.708 0 98.126-14.624 139.544-41.666 11.414 1.998 22.916 3 34.582 3 109.876 0 199.25-89.46 199.25-199.416-.004-106.752-84.38-194.252-189.92-199.084zm-9.334 334.5c-16.624 0-32.75-3-48-8.916-35 30.5-79.5 47.584-126.126 47.584-46.498 0-90.998-17.084-125.998-47.584-15.25 5.918-31.5 8.916-48 8.916-74.624 0-135.376-60.75-135.376-135.416 0-74.584 60.75-135.334 135.376-135.334 6.376 0 12.75.5 19.042 1.376C531.877 93.542 588.75 64 650.624 64 712.5 64 769.5 93.542 805.626 142.708c6.25-.876 12.624-1.376 19.124-1.376 74.624 0 135.25 60.75 135.25 135.334 0 74.668-60.624 135.418-135.25 135.418zM288 449.376H32c-17.666 0-32 14.292-32 32 0 17.706 14.334 32 32 32h256c17.666 0 32-14.294 32-32 0-17.708-14.334-32-32-32zm-256-64h128c17.666 0 32-14.292 32-32s-14.334-32-32-32H32c-17.666 0-32 14.292-32 32s14.334 32 32 32zm64-128h128c17.666 0 32-14.292 32-32s-14.334-32-32-32H96c-17.666 0-32 14.292-32 32s14.334 32 32 32zM448 704c0 35.376 28.624 64 64 64s64-28.624 64-64-64-128-64-128-64 92.624-64 128zm256 128c0 35.376 28.624 64 64 64s64-28.624 64-64-64-128-64-128-64 92.624-64 128z"/>
    </symbol>
  </defs>
</svg>
